<svg xmlns="http://www.w3.org/2000/svg" width="1008.41" height="475.707" fill="none" overflow="visible" preserveAspectRatio="none" style="display:block" viewBox="0 0 1008.41 475.707"><g stroke="#fff" stroke-miterlimit="10" stroke-opacity=".2" stroke-width=".7464"><path d="M866.098 200.635c-12.525-89.291-138.201-145.9781-232.62-144.8379-108.807 1.3251-149.816 79.1369-232.619 55.4699-75.563-21.5717-80.015-97.442-135.567-109.3988C214.239-9.1178 133.454 36.7525.322 263.809"/><path d="M6.9824 273.611C138.533 49.8695 219.386 2.2341 271.177 11.185c38.385 6.6862 53.178 43.522 83.211 72.3158a127.31 127.31 0 0 0 53.656 31.6282c66.26 19.504 105.755-23.6633 176.561-42.1813a238.28 238.28 0 0 1 55.258-7.857c94.83-2.5728 219.138 46.5573 233.607 132.5843"/><path d="M12.7074 284.5C142.591 63.5297 223.414 14.0203 275.802 20.9695c38.509 5.1116 54.175 40.2747 84.258 67.6701 15.344 14.3224 33.746 24.9444 53.805 31.0554 65.281 19.875 104.746-19.103 175.772-36.8001a268.93 268.93 0 0 1 55.114-7.9067c95.195-3.7217 218.039 37.6498 234.444 120.6228"/><path d="M19.367 294.302C147.651 76.8112 228.551 25.587 281.636 30.4641c38.694 3.5497 55.182 36.9017 85.384 62.8302 15.675 13.7717 34.044 24.1217 53.934 30.3887 64.411 20.187 103.736-14.492 175.113-31.2993a306.53 306.53 0 0 1 55.058-7.9792c95.616-5.0313 217.089 28.6135 235.442 108.2825"/><path d="M26.0274 304.104C152.624 90.1291 233.464 37.2559 287.244 40.0614c38.795 2.0039 56.167 33.5275 86.446 57.9294a165.07 165.07 0 0 0 54.088 29.7202c63.483 20.486 102.679-9.866 174.37-25.789a360 360 0 0 1 54.828-7.9853c95.963-6.3356 215.953 19.5923 236.251 95.9113"/><path d="M32.0311 314.339C157.101 103.452 238.016 47.3206 292.494 49.5424c38.886 1.5429 57.204 30.1333 87.555 53.1846a184.53 184.53 0 0 0 54.278 29.099c62.612 20.83 101.683-5.261 173.647-20.32a429.2 429.2 0 0 1 54.708-8.054c96.399-7.7145 215.014 10.6 237.261 83.75"/><path d="M38.6912 324.852C162.021 117.136 242.844 60.8458 298.056 59.3019c38.995-.8955 58.246 26.8946 88.632 48.5091a209.17 209.17 0 0 0 54.411 28.47c61.695 21.166 100.659-.664 172.858-14.853 18.033-3.63 36.24-6.33 54.55-8.09 96.763-9.032 213.917 1.544 238.096 71.529"/><path d="M44.6959 334.374C166.406 130.38 247.274 72.4684 303.245 68.9711c39.101-2.4958 59.345 23.2788 89.757 43.5069a241.85 241.85 0 0 0 54.585 27.731c60.808 21.461 99.694 3.975 172.196-9.351 16.87-3.081 34.88-6.039 54.431-8.119 97.213-10.369 212.977-7.38 239.106 59.175"/><path d="M50.9794 344.666C171.047 143.504 251.816 83.8677 308.485 78.1079c39.191-3.9686 60.427 19.9046 90.856 38.8051a289.17 289.17 0 0 0 54.728 27.163c59.888 21.835 98.632 8.57 171.394-3.876 16.939-2.903 34.894-5.837 54.282-8.184 97.446-11.736 211.801-16.4 239.858 47.036"/><path d="M57.639 355.18C176.119 157.427 256.887 96.2165 314.317 88.3145c39.298-5.4173 61.62 16.4215 91.937 33.9545a361.27 361.27 0 0 0 54.888 26.515c59.032 22.147 97.684 13.18 170.75 1.543 16.945-2.716 34.923-5.648 54.164-8.241 97.991-13.15 210.91-25.435 240.919 34.726"/><path d="M63.9225 364.76C180.813 170.548 261.597 107.845 319.742 97.7337c39.405-6.8436 62.753 12.9163 93.081 29.1323a486.3 486.3 0 0 0 55.063 25.817c58.145 22.443 96.703 17.757 170.089 7.091 17.029-2.497 34.967-5.441 54.046-8.262 98.428-14.55 209.956-34.403 241.949 22.427"/><path d="M70.2066 375.051C185.42 183.996 266.162 119.658 325.017 107.318c39.493-8.2683 63.86 9.424 94.111 24.356 17.39 8.576 35.196 17.23 55.204 25.189 57.222 22.767 95.652 22.382 169.278 12.571 17.066-2.298 34.965-5.26 53.91-8.314 98.779-15.98 208.833-43.437 242.734 10.196"/><path d="M76.7693 384.687C190.41 196.967 271.076 131.021 330.755 116.443c39.616-9.703 65.072 5.877 95.258 19.545 17.813 8.068 35.672 16.475 55.38 24.543 56.35 23.139 94.673 26.98 168.62 18.048 17.119-2.082 35.009-5.059 53.762-8.361 99.203-17.431 207.897-52.448 243.754-2.051"/><path d="M83.0524 394.98C195.035 210.62 275.738 143.237 336.019 126.418c39.705-11.084 66.226 2.312 96.32 14.737 18.235 7.523 36.116 15.694 55.445 23.88 55.444 23.401 93.609 31.572 167.874 23.525 17.173-1.896 35.007-4.887 53.597-8.402 99.554-18.9 206.778-61.448 244.557-14.321"/><path d="M88.9603 405.049C199.325 223.801 280.015 154.852 341.076 135.716c39.844-12.5 67.439-1.281 97.438 9.938 18.674 6.975 36.624 14.954 55.698 23.256 54.543 23.75 92.646 36.203 167.158 29.028a529 529 0 0 0 53.495-8.503c99.965-20.324 205.877-70.432 245.567-26.543"/><path d="M95.8018 414.743C204.497 236.801 285.225 166.293 346.827 144.905c39.948-13.889 68.608-4.892 98.561 5.139 19.097 6.404 37.069 14.181 55.811 22.607 53.639 24.073 91.601 40.817 166.323 34.505a418.8 418.8 0 0 0 53.331-8.503c100.333-21.928 204.747-79.488 246.42-38.903"/><path d="M101.71 424.813c107.101-174.461 187.95-246.324 250.251-270.047 40.055-15.229 69.819-8.524 99.63.324 19.534 5.811 37.544 13.426 55.984 21.95 52.75 24.371 90.633 45.365 165.705 39.939a348.65 348.65 0 0 0 53.212-8.539c100.707-23.353 203.772-88.387 247.401-51.038"/><path d="M108.065 434.392c105.422-171.06 186.19-244.463 249.202-270.476 40.207-16.613 70.99-12.206 100.679-4.485 20.019 5.194 38.005 12.653 56.129 21.298 51.833 24.658 89.576 49.962 164.908 45.416a299.36 299.36 0 0 0 53.05-8.584c101.033-24.873 202.666-97.381 248.216-63.277"/><path d="M114.422 444.684c103.765-167.826 184.685-242.609 248.382-270.902 40.36-17.967 72.186-15.887 101.809-9.245 20.411 4.623 38.511 11.896 56.303 20.649 50.958 25.009 88.607 54.565 164.243 50.851a262.44 262.44 0 0 0 52.93-8.629c101.438-26.412 201.799-106.327 249.229-75.507"/><path d="M121.058 455.033c102.245-164.639 183.194-240.937 247.546-271.638 40.544-19.352 73.398-19.63 102.954-14.094 20.85 3.917 38.972 11.149 56.478 20.046 50.067 25.351 87.621 59.197 163.577 56.391 17.878-.85 35.599-3.764 52.81-8.681 101.829-28.019 200.777-115.465 250.243-87.833"/><path d="M127.038 465.102c100.571-161.333 181.548-239.001 246.46-272.122 40.681-20.693 74.523-23.36 103.99-18.889 21.273 3.223 39.434 10.377 56.609 19.352 49.169 25.688 86.6 63.821 162.802 61.878a209.78 209.78 0 0 0 52.666-8.728c102.065-29.728 199.663-124.419 251.085-100.056"/><path d="M133.953 475.509C294.57 218.658 408.099 169.836 484.771 178.791c83.699 9.774 115.64 87.609 218.908 86.188 121.141-1.683 242.205-145.988 304.591-121.253"/></g></svg>