<svg preserveAspectRatio="none" overflow="visible" style="display: block;" width="20" height="15.8989" viewBox="0 0 20 15.8989" fill="none" xmlns="http://www.w3.org/2000/svg">
<g id="Group 1321319601">
<path id="Vector" d="M6.19846 15.8989H13.8015C16.3841 15.8989 17.6753 15.8989 18.5805 15.2412C18.8728 15.0288 19.1299 14.7717 19.3423 14.4794C20 13.5742 20 12.2829 20 9.70041V6.15527H0V9.70041C0 12.2829 0 13.5742 0.657667 14.4794C0.870066 14.7717 1.12716 15.0288 1.4195 15.2412C2.3247 15.8989 3.61595 15.8989 6.19846 15.8989Z" fill="#242424" fill-opacity="0.2"/>
<path id="Vector_2" d="M15.8974 2.05153H12.8843C11.9936 2.05153 11.1433 1.67976 10.5385 1.02588C9.93363 0.372007 9.08333 0.000243813 8.1926 0.000243813H6.15385C3.61397 0.000243813 2.34404 0.000243813 1.44795 0.637459C1.1343 0.8605 0.860256 1.13454 0.637216 1.44819C0 2.34428 0 3.61422 0 6.15409H20C20 5.54193 20 5.23585 19.9612 4.9795C19.7352 3.48743 18.5641 2.3163 17.072 2.09035C16.8157 2.05153 16.5096 2.05153 15.8974 2.05153Z" fill="#242424"/>
</g>
</svg>
